<svg xmlns="http://www.w3.org/2000/svg" width="512" height="512" viewBox="0 0 384 384"><style>@media (prefers-color-scheme:dark){.path{fill:#9e9df8}}</style><path fill="#000096" d="M187.905 19.036c-106.483 0-122.197.167-125.874 1.254-7.94 2.424-13.29 5.683-19.224 11.618-6.268 6.268-8.86 10.447-11.367 18.387-1.504 4.848-1.588 9.947-1.588 141.922 0 134.733 0 136.99 1.672 141.837 5.098 15.045 14.209 24.155 29.42 29.337 4.68 1.505 8.526 1.588 149.026 1.588h144.178V62.415h-10.782c-9.027 0-10.866.25-11.284 1.337-.25.752-.501 63.69-.501 139.999v138.661H69.052l-4.347-2.09c-4.847-2.34-6.352-3.51-7.94-5.85-6.185-9.695-5.516-20.06 1.923-27.414 6.853-6.938-3.009-6.437 131.557-6.437 91.688 0 119.521-.25 120.273-1.002 1.421-1.421 1.421-278.243 0-279.664-.752-.752-29.086-1.002-122.613-.919m-17.208 66.302c42.405 0 78.44 24.514 105.294 69.234l.01.018.032.051a11 11 0 0 1 .266.511 11 11 0 0 1 .315.605 11 11 0 0 1 .22.575 11 11 0 0 1 .237.628 11 11 0 0 1 .155.625 11 11 0 0 1 .153.628 11 11 0 0 1 .08.648 11 11 0 0 1 .076.632 11 11 0 0 1 .002.646 11 11 0 0 1-.002.646 11 11 0 0 1-.075.632 11 11 0 0 1-.08.647 11 11 0 0 1-.154.63 11 11 0 0 1-.155.624 11 11 0 0 1-.237.628 11 11 0 0 1-.22.575 11 11 0 0 1-.321.617 11 11 0 0 1-.26.5l-.03.048-.015.024c-26.854 44.718-62.887 69.23-105.29 69.23-42.427 0-78.478-24.538-105.337-69.303a10.69 10.69 0 0 1 0-10.996c26.859-44.764 62.91-69.303 105.336-69.303m0 21.372c-32.902 0-59.937 16.597-83.56 53.429 23.623 36.832 50.658 53.43 83.56 53.43s59.938-16.598 83.561-53.43c-23.623-36.832-50.658-53.43-83.56-53.43m0 21.371c8.499 0 16.66 3.38 22.669 9.39a32.07 32.07 0 0 1 9.39 22.668 32.07 32.07 0 0 1-9.39 22.668 32.07 32.07 0 0 1-22.669 9.39 32.07 32.07 0 0 1-22.668-9.39 32.07 32.07 0 0 1-9.39-22.668 32.07 32.07 0 0 1 9.39-22.668 32.07 32.07 0 0 1 22.668-9.39m0 21.372a10.67 10.67 0 0 0-7.555 3.13 10.67 10.67 0 0 0-3.13 7.556 10.67 10.67 0 0 0 3.13 7.556 10.67 10.67 0 0 0 7.555 3.13c2.839 0 5.55-1.123 7.557-3.13a10.67 10.67 0 0 0 3.13-7.556 10.67 10.67 0 0 0-3.13-7.556 10.67 10.67 0 0 0-7.557-3.13" class="path"/></svg>